<svg width="200" height="52" viewBox="0 0 200 52" fill="none" xmlns="http://www.w3.org/2000/svg">
<path d="M194.949 0C197.711 0 199.949 2.23858 199.949 5V47C199.949 49.7614 197.711 52 194.949 52H5.9491C3.18767 52 0.949097 49.7614 0.949097 47V5C0.949097 2.23858 3.18767 2.11397e-08 5.9491 0H194.949ZM10.9491 5C8.18767 5 5.9491 7.23858 5.9491 10V42C5.9491 44.7614 8.18767 47 10.9491 47H42.9491C45.7105 47 47.9491 44.7614 47.9491 42V10C47.9491 7.23858 45.7105 5 42.9491 5H10.9491ZM92.204 20C91.212 20 90.4433 20.2556 89.8993 20.7676C89.3553 21.2795 89.0839 21.984 89.0839 22.8799V41.5996C89.0839 42.4955 89.3554 43.1999 89.8993 43.7119C90.4433 44.2239 91.212 44.4805 92.204 44.4805C93.1638 44.4804 93.9318 44.2238 94.5077 43.7119C95.0836 43.1999 95.3719 42.4955 95.3719 41.5996V22.8799C95.3719 21.984 95.0837 21.2795 94.5077 20.7676C93.9318 20.2558 93.1637 20.0001 92.204 20ZM151.216 20C148.432 20 145.951 20.5121 143.775 21.5361C141.631 22.5281 139.951 23.9518 138.735 25.8076C137.519 27.6636 136.911 29.8082 136.911 32.2402C136.911 34.6721 137.519 36.816 138.735 38.6719C139.951 40.5278 141.631 41.9682 143.775 42.9922C145.951 43.9842 148.432 44.4805 151.216 44.4805C154 44.4804 156.463 43.9841 158.607 42.9922C160.783 41.9682 162.479 40.5279 163.695 38.6719C164.911 36.8159 165.519 34.6722 165.519 32.2402C165.519 29.8082 164.911 27.6636 163.695 25.8076C162.479 23.9518 160.783 22.5281 158.607 21.5361C156.463 20.5122 154 20 151.216 20ZM182.51 20C178.222 20.0001 174.894 21.072 172.526 23.2158C170.158 25.3278 168.974 28.3204 168.974 32.1924C168.974 36.0642 170.158 39.0877 172.526 41.2637C174.894 43.4076 178.222 44.4804 182.51 44.4805C184.878 44.4805 186.958 44.1278 188.75 43.4238C190.574 42.6878 192.222 41.5358 193.694 39.9678C194.142 39.4559 194.366 38.9277 194.366 38.3838C194.366 37.5199 193.982 36.7837 193.214 36.1758C192.734 35.7919 192.206 35.5996 191.63 35.5996C190.766 35.5997 189.886 36.0484 188.99 36.9443C187.198 38.6403 185.038 39.4883 182.51 39.4883C180.238 39.4882 178.461 38.8642 177.182 37.6162C175.934 36.3363 175.31 34.5281 175.31 32.1924C175.31 29.9205 175.934 28.1601 177.182 26.9121C178.461 25.6322 180.238 24.9922 182.51 24.9922C183.662 24.9922 184.734 25.2002 185.726 25.6162C186.75 26.0002 187.582 26.5602 188.222 27.2959C188.573 27.6798 188.99 27.984 189.47 28.208C189.95 28.4 190.414 28.4961 190.862 28.4961C191.438 28.4961 191.918 28.3522 192.302 28.0645C193.165 27.4246 193.597 26.6883 193.598 25.8564C193.598 25.3126 193.406 24.8002 193.022 24.3203C191.966 22.9444 190.51 21.8883 188.654 21.1523C186.83 20.3843 184.782 20 182.51 20ZM68.4686 9.91992C63.7329 9.92001 60.0367 11.2325 57.3807 13.8564C54.725 16.4804 53.3974 20.1122 53.3973 24.752V41.5518C53.3973 42.4476 53.6848 43.1521 54.2606 43.6641C54.8366 44.1761 55.6053 44.4316 56.5653 44.4316C57.5252 44.4316 58.2931 44.176 58.869 43.6641C59.477 43.1201 59.7811 42.4158 59.7811 41.5518V33.7285H77.1571V41.5518C77.1571 42.4158 77.4454 43.1201 78.0214 43.6641C78.6293 44.1759 79.4131 44.4316 80.3729 44.4316C81.3328 44.4316 82.1007 44.1759 82.6766 43.6641C83.2526 43.1521 83.5409 42.4478 83.5409 41.5518V24.752C83.5409 21.712 82.9327 19.072 81.7167 16.832C80.5327 14.5922 78.805 12.8803 76.5331 11.6963C74.2611 10.5123 71.5726 9.91992 68.4686 9.91992ZM108.419 10.4004C106.115 10.4004 104.307 11.0245 102.995 12.2725C101.715 13.5204 101.075 15.264 101.075 17.5039V36.7041C101.075 39.0081 101.747 40.8001 103.091 42.0801C104.435 43.36 106.323 44 108.755 44H115.139C118.85 44 122.034 43.3441 124.69 42.0322C127.378 40.6883 129.427 38.7684 130.835 36.2725C132.275 33.7445 132.995 30.736 132.995 27.248C132.995 23.76 132.275 20.7516 130.835 18.2236C129.427 15.6957 127.378 13.76 124.69 12.416C122.002 11.0721 118.818 10.4004 115.139 10.4004H108.419ZM151.216 24.9922C153.68 24.9922 155.615 25.6322 157.023 26.9121C158.463 28.1921 159.183 29.9682 159.183 32.2402C159.183 34.5121 158.463 36.2884 157.023 37.5684C155.615 38.8482 153.679 39.4882 151.216 39.4883C148.752 39.4883 146.799 38.8483 145.359 37.5684C143.951 36.2884 143.248 34.5121 143.248 32.2402C143.248 29.9683 143.951 28.1921 145.359 26.9121C146.799 25.6321 148.752 24.9922 151.216 24.9922ZM114.659 15.3438C118.627 15.3438 121.587 16.3364 123.539 18.3203C125.523 20.2723 126.515 23.2483 126.515 27.248C126.515 31.2479 125.539 34.2238 123.587 36.1758C121.635 38.0957 118.659 39.0556 114.659 39.0557H109.522C108.882 39.0556 108.37 38.8476 107.986 38.4316C107.634 38.0157 107.459 37.4398 107.459 36.7041V17.6963C107.459 16.9603 107.634 16.3838 107.986 15.9678C108.37 15.5518 108.882 15.3438 109.522 15.3438H114.659ZM68.4686 14.96C71.3486 14.96 73.5091 15.7762 74.9491 17.4082C76.421 19.0082 77.1571 21.4085 77.1571 24.6084V28.7842H59.7811V24.6084C59.7811 18.1766 62.6769 14.9601 68.4686 14.96ZM92.1552 9.91992C90.9714 9.92001 90.0112 10.2558 89.2753 10.9277C88.5714 11.5677 88.2197 12.4159 88.2196 13.4717C88.2196 14.5277 88.5713 15.3925 89.2753 16.0645C90.0112 16.7044 90.9714 17.0243 92.1552 17.0244C93.3392 17.0244 94.3 16.7045 95.036 16.0645C95.804 15.3925 96.1874 14.5277 96.1874 13.4717C96.1873 12.4159 95.8039 11.5677 95.036 10.9277C94.3 10.2557 93.3392 9.91992 92.1552 9.91992Z" fill="#00FFD0"/>
<path d="M22.4491 15.5C22.4491 13.0147 24.4638 11 26.9491 11C29.4344 11 31.4491 13.0147 31.4491 15.5V36.5C31.4491 38.9853 29.4344 41 26.9491 41C24.4638 41 22.4491 38.9853 22.4491 36.5V15.5Z" fill="#00FFD0"/>
<path d="M37.4491 21.5C39.9344 21.5 41.9491 23.5147 41.9491 26C41.9491 28.4853 39.9344 30.5 37.4491 30.5L16.4491 30.5C13.9638 30.5 11.9491 28.4853 11.9491 26C11.9491 23.5147 13.9638 21.5 16.4491 21.5L37.4491 21.5Z" fill="#00FFD0"/>
</svg>
