<svg width="53" height="53" viewBox="0 0 53 53" fill="none" xmlns="http://www.w3.org/2000/svg">
<path d="M47.9491 0.868286C50.7105 0.868286 52.9491 3.10686 52.9491 5.86829V47.8683C52.9491 50.6297 50.7105 52.8683 47.9491 52.8683H5.9491C3.18767 52.8683 0.949097 50.6297 0.949097 47.8683V5.86829C0.949097 3.10686 3.18767 0.868286 5.9491 0.868286H47.9491ZM10.9491 5.86829C8.18767 5.86829 5.9491 8.10686 5.9491 10.8683V42.8683C5.9491 45.6297 8.18767 47.8683 10.9491 47.8683H42.9491C45.7105 47.8683 47.9491 45.6297 47.9491 42.8683V10.8683C47.9491 8.10686 45.7105 5.86829 42.9491 5.86829H10.9491Z" fill="#00FFD0"/>
<path d="M22.4491 16.3683C22.4491 13.883 24.4638 11.8683 26.9491 11.8683C29.4344 11.8683 31.4491 13.883 31.4491 16.3683V37.3683C31.4491 39.8536 29.4344 41.8683 26.9491 41.8683C24.4638 41.8683 22.4491 39.8536 22.4491 37.3683V16.3683Z" fill="#00FFD0"/>
<path d="M37.4491 22.3683C39.9344 22.3683 41.9491 24.383 41.9491 26.8683C41.9491 29.3536 39.9344 31.3683 37.4491 31.3683L16.4491 31.3683C13.9638 31.3683 11.9491 29.3536 11.9491 26.8683C11.9491 24.383 13.9638 22.3683 16.4491 22.3683L37.4491 22.3683Z" fill="#00FFD0"/>
</svg>
